<svg height='300px' width='300px'  fill="#000000" xmlns="http://www.w3.org/2000/svg" xmlns:xlink="http://www.w3.org/1999/xlink" version="1.1" x="0px" y="0px" viewBox="0 0 100 100" enable-background="new 0 0 100 100" xml:space="preserve">
<g display="none">
<g display="inline">
<path d="M58.59,47.441c-0.899-0.842-1.418-1.751-0.575-2.653c0.841-0.901,2.255-0.948,3.155-0.105s0.947,2.256,0.107,3.156    C60.432,48.738,59.49,48.282,58.59,47.441z"></path>
<circle cx="51.447" cy="38.644" r="2.231"></circle>
<polygon points="52.971,37.014 49.923,40.274 58.59,47.441 61.17,44.682   "></polygon>
</g>
<polygon display="inline" points="52.801,50.343 55.064,53.148 61.223,47.941 58.82,45.072  "></polygon>
<path display="inline" d="M58.947,45c0.854-0.572,2.012-0.346,2.584,0.512c0.575,0.856,0.346,2.015-0.512,2.584   c-0.854,0.574-2.012,0.347-2.583-0.509C57.862,46.731,58.09,45.572,58.947,45z"></path>
</g>
<g>
<path d="M14.616,32.099c3.664-0.101,6.556-3.152,6.456-6.816c-0.032-1.211-0.389-2.338-0.981-3.301   c-1.202-1.952-3.382-3.227-5.838-3.16c-3.667,0.102-6.556,3.154-6.456,6.825C7.896,29.309,10.948,32.198,14.616,32.099z"></path>
<path d="M93.472,77.052c-0.013-0.046-0.036-0.086-0.052-0.131l-2.904-10.328L92,55.551c0.099-0.204,0.18-0.423,0.236-0.652   C92.314,54.581,92.348,54,92.348,54h0.013l-0.863-17h-0.013c-0.091-2-1.885-3.85-4.144-3.9c-2.203-0.052-4.03,1.415-4.294,3.402   l-2.861,10.2l-6.071,2.827c-0.131,0.03-0.262,0.071-0.391,0.131c-0.938,0.439-1.388,1.539-1.004,2.457   c0.169,0.4,0.472,0.692,0.834,0.866c0.089,2.687-0.119,10.744-5.244,16.441C64.526,73.631,58.853,76,51.446,76   c-0.012,0-0.021,0-0.033,0c-7.557,0-13.514-2.365-17.707-6.61c-5.666-5.737-6.425-13.852-6.526-16.088   c0.197-0.166,0.362-0.374,0.469-0.63c0.384-0.918-0.065-2.019-1.004-2.458c-0.107-0.05-0.217-0.086-0.326-0.115l-6.136-2.868   l-2.861-10.23c-0.266-1.985-2.092-3.675-4.294-3.624C10.769,33.428,8.976,35,8.884,37H8.872L8.008,55h0.013   c0,0,0.033,0.359,0.111,0.676c0.057,0.23,0.138,0.337,0.237,0.542l1.484,10.985L6.949,77.499c-0.016,0.046-0.04,0.073-0.053,0.121   c-0.345,1.229,0.371,2.495,1.597,2.841c1.199,0.338,2.437-0.343,2.816-1.519l0.021,0.004l3.103-11.028   c0.036-0.128,0.054-0.258,0.068-0.386l0.062,0.154l0.059-0.02L14.55,78.195c-0.003,0.048-0.015,0.093-0.015,0.142   c-0.01,1.277,1.017,2.092,2.294,2.1C18.074,80.445,19.088,80,19.145,78h0.022l0.078-10.992c0.055-0.357,0.04-0.615-0.08-0.982   c-0.04-0.121-0.095-0.176-0.152-0.286L15.432,54.82l0.78-7.075l0.441,1.333c0.228,0.705,0.814,1.19,1.49,1.331l7.171,3.193   l0.015-0.035c0.285,0.118,0.578,0.155,0.86,0.134c0.136,2.655,1.029,10.523,6.797,16.37C37.375,74.518,43.574,77,51.413,77   c0.011,0,0.022,0,0.033,0c7.706,0,13.632-2.469,17.612-6.898c5.262-5.855,5.599-13.884,5.511-16.964   c0.156-0.021,0.313-0.062,0.467-0.125l0.018,0.042l7.173-3.195c0.676-0.141,1.262-0.624,1.489-1.328l0.441-1.326l0.779,7.088   l-3.582,10.951c-0.056,0.109-0.111,0.22-0.15,0.34c-0.12,0.367-0.135,0.79-0.079,1.147L81.202,78h0.022   c0.057,1,1.07,2.168,2.315,2.158c1.276-0.008,2.303-1.074,2.293-2.352c0-0.049-0.012-0.106-0.016-0.154l-0.071-10.534l0.059,0.017   l0.063-0.155c0.014,0.128,0.031,0.256,0.067,0.384l3.103,11.026l0.021-0.006c0.38,1.176,1.618,1.854,2.816,1.516   C93.102,79.554,93.817,78.28,93.472,77.052z"></path>
<path d="M85.633,32.099c3.664-0.101,6.556-3.152,6.456-6.816c-0.032-1.211-0.389-2.338-0.981-3.301   c-1.202-1.952-3.382-3.227-5.838-3.16c-3.667,0.102-6.556,3.154-6.456,6.825C78.913,29.309,81.965,32.198,85.633,32.099z"></path>
<path d="M48.301,35.014c3.402-0.094,6.087-2.927,5.994-6.329c-0.029-1.125-0.359-2.171-0.91-3.065   c-1.117-1.813-3.14-2.996-5.42-2.934c-3.405,0.094-6.087,2.928-5.995,6.337C42.062,32.423,44.896,35.106,48.301,35.014z"></path>
<path d="M51.271,35.303c-2.352-0.047-4.292,1.787-4.333,3.968C46.934,39.485,46.962,40,46.994,40h-0.032l2.695,14.148l-4.567,5.374   l0.018-0.005c-0.541,0.77-0.579,1.816-0.007,2.633l6.557,9.388l0.017-0.013c0.744,0.986,2.138,1.218,3.161,0.503   c1.044-0.731,1.299-2.17,0.569-3.216c-0.024-0.035-0.056-0.063-0.082-0.096l-5.404-7.739l5.998-5.798   c0.011-0.013,0.024-0.022,0.035-0.034l0.007-0.007l-0.001-0.001c0.389-0.436,0.63-1.032,0.63-1.692c0-0.563-0.04-1.097-0.17-1.533   l-0.865-10.826l4.022,0.971l-0.994,5.704c-0.037,0.104-0.07,0.213-0.09,0.327c-0.176,1.02,0.465,2.02,1.438,2.231   c0.948,0.203,1.854-0.417,2.064-1.391l0.038,0.008l1.512-7.802l-0.017-0.004c0.104-0.456,0.035-0.927-0.188-1.323   c-0.223-0.546-0.678-0.992-1.289-1.167l-8.109-2.377C53.218,35.69,52.297,35.322,51.271,35.303z"></path>
</g>
</svg>