<svg version="1.1" viewBox="0 0 300 300">
  <path class="left" d="M43.85,96.3c10.99-0.3,19.67-9.46,19.37-20.45c-0.1-3.63-1.17-7.01-2.94-9.9c-3.61-5.86-10.15-9.68-17.51-9.48
    c-11,0.31-19.67,9.46-19.37,20.47C23.69,87.93,32.84,96.59,43.85,96.3z M82.95,158.02c0.9-1.85,0.05-5.81-3.01-7.37
    c-0.28-0.14-0.61-0.27-0.98-0.35l-18.41-8.6L51.97,111c-0.8-5.95-6.28-11.02-12.88-10.87C32.31,100.28,26.93,105,26.65,111h-0.04
    l-2.59,54h0.04c0,0,0.1,1.08,0.33,2.03c0.17,0.69,0.41,1.01,0.71,1.63l4.45,32.95l-8.71,30.89c-0.05,0.14-0.12,0.22-0.16,0.36
    c-1.03,3.69,1.11,7.49,4.79,8.52c3.6,1.01,7.31-1.03,8.45-4.56l0.06,0.01l9.31-33.08c0.11-0.38,0.16-0.77,0.2-1.16l0.19,0.46
    l0.18-0.06l-0.22,31.59c-0.01,0.14-0.05,0.28-0.05,0.43c-0.03,3.83,3.05,6.28,6.88,6.3c3.74,0.02,6.78-1.31,6.95-7.31h0.07
    l0.23-32.98c0.17-1.07,0.12-1.85-0.24-2.95c-0.12-0.36-0.28-0.53-0.46-0.86L46.3,164.46l2.34-21.22l1.32,4
    c0.68,2.12,2.44,3.57,4.47,3.99c7.17,3.19,15.71,9.28,21.51,9.58C79.67,161,82,159.96,82.95,158.02z"/>
  <path class="right" d="M225.16,159.16c1.1-0.51,21.52-9.59,21.52-9.59c2.03-0.42,3.79-1.87,4.47-3.98l1.32-3.98l2.34,21.26
    l-10.75,32.85c-0.17,0.33-0.33,0.66-0.45,1.02c-0.36,1.1-0.41,2.37-0.24,3.44l0.23,33.8h0.07c0.17,3,3.21,6.5,6.95,6.47
    c3.83-0.02,6.91-3.22,6.88-7.06c0-0.15-0.04-0.32-0.05-0.46l-0.21-31.6l0.18,0.05l0.19-0.46c0.04,0.38,0.09,0.77,0.2,1.15
    l9.31,33.08l0.06-0.02c1.14,3.53,4.85,5.56,8.45,4.55c3.68-1.04,5.83-4.86,4.79-8.54c-0.04-0.14-0.11-0.26-0.16-0.39l-8.71-30.98
    l4.45-33.13c0.3-0.61,0.54-1.27,0.71-1.96c0.23-0.95,0.34-2.7,0.34-2.7h0.04l-2.59-51h-0.04c-0.27-6-5.66-11.55-12.43-11.7
    c-6.61-0.16-12.09,4.25-12.88,10.21l-8.58,30.6l-18.21,8.48c-0.39,0.09-0.79,0.21-1.17,0.39c-2.81,1.32-4.17,4.62-3.01,7.37
    C219.54,159.62,223.46,159.96,225.16,159.16z M256.9,96.3c10.99-0.3,19.67-9.46,19.37-20.45c-0.1-3.63-1.17-7.01-2.94-9.9
    c-3.61-5.86-10.15-9.68-17.51-9.48c-11,0.31-19.67,9.46-19.37,20.47C236.74,87.93,245.89,96.59,256.9,96.3z"/>
  <path class="jumper" d="M144.9,105.04c10.21-0.28,18.26-8.78,17.98-18.99c-0.09-3.38-1.08-6.51-2.73-9.19
    c-3.35-5.44-9.42-8.99-16.26-8.8c-10.21,0.28-18.26,8.78-17.99,19.01C126.19,97.27,134.69,105.32,144.9,105.04z M153.81,105.91
    c-7.06-0.14-12.88,5.36-13,11.9c-0.01,0.64,0.07,2.19,0.17,2.19h-0.1l8.09,42.44l-13.7,16.12l0.05-0.01
    c-1.62,2.31-1.74,5.45-0.02,7.9l19.67,28.16l0.05-0.04c2.23,2.96,6.41,3.65,9.48,1.51c3.13-2.19,3.9-6.51,1.71-9.65
    c-0.07-0.11-0.17-0.19-0.25-0.29l-16.21-23.22l17.99-17.39c0.03-0.04,0.07-0.07,0.1-0.1l0.02-0.02l0,0c1.17-1.31,1.89-3.1,1.89-5.08
    c0-1.69-0.12-3.29-0.51-4.6l-2.6-32.48l12.07,2.91l-2.98,17.11c-0.11,0.31-0.21,0.64-0.27,0.98c-0.53,3.06,1.4,6.06,4.31,6.69
    c2.84,0.61,5.56-1.25,6.19-4.17l0.11,0.02l4.54-23.41l-0.05-0.01c0.31-1.37,0.1-2.78-0.56-3.97c-0.67-1.64-2.03-2.98-3.87-3.5
    l-24.33-7.13C159.65,107.07,156.89,105.97,153.81,105.91z"/>
  <path class="rope" d="M223.71,158.94l-3.05,0.02c0.27,8.07-0.36,32.23-15.73,49.31C193.58,220.89,176.56,228,154.34,228
    c-0.04,0-0.06,0-0.1,0c-22.67,0-40.54-7.09-53.12-19.83c-17-17.21-19.27-41.56-19.58-48.26c0,0,0.01-0.01,0.01-0.01l-3.05,0.02v1.19
    c0.02,0,0.04,0,0.07,0c0.41,7.96,3.09,31.57,20.39,49.11c13.17,13.34,31.76,20.79,55.28,20.79c0.03,0,0.07,0,0.1,0
    c23.12,0,40.9-7.41,52.84-20.69c15.79-17.57,16.8-41.65,16.53-50.89c0.01,0,0.01,0,0.02,0L223.71,158.94z"/>
</svg>
